<svg width="203" height="213" viewBox="0 0 203 213" fill="none" xmlns="http://www.w3.org/2000/svg">
<path d="M78.5273 213C121.897 213 157.055 206.772 157.055 199.089C157.055 191.407 121.897 185.179 78.5273 185.179C35.1579 185.179 0 191.407 0 199.089C0 206.772 35.1579 213 78.5273 213Z" fill="#3F3D56"/>
<path d="M126.255 153.911C168.641 153.911 203.001 119.457 203.001 76.9557C203.001 34.4542 168.641 0 126.255 0C83.8699 0 49.5098 34.4542 49.5098 76.9557C49.5098 119.457 83.8699 153.911 126.255 153.911Z" fill="#3F3D56"/>
<path opacity="0.05" d="M126.254 140.485C161.245 140.485 189.61 112.042 189.61 76.9557C189.61 41.8694 161.245 13.4263 126.254 13.4263C91.2638 13.4263 62.8984 41.8694 62.8984 76.9557C62.8984 112.042 91.2638 140.485 126.254 140.485Z" fill="black"/>
<path opacity="0.05" d="M126.254 129.024C154.932 129.024 178.179 105.712 178.179 76.9557C178.179 48.1994 154.932 24.8878 126.254 24.8878C97.576 24.8878 74.3281 48.1994 74.3281 76.9557C74.3281 105.712 97.576 129.024 126.254 129.024Z" fill="black"/>
<path opacity="0.05" d="M126.255 114.287C146.817 114.287 163.485 97.5734 163.485 76.9557C163.485 56.3379 146.817 39.624 126.255 39.624C105.694 39.624 89.0254 56.3379 89.0254 76.9557C89.0254 97.5734 105.694 114.287 126.255 114.287Z" fill="black"/>
<path d="M50.1895 83.8427C50.1895 83.8427 44.1558 100.873 46.8374 106.923C49.5191 112.974 53.765 118.8 53.765 118.8C53.765 118.8 52.2007 84.9631 50.1895 83.8427Z" fill="#D0CDE1"/>
<path opacity="0.1" d="M50.1895 83.8427C50.1895 83.8427 44.1558 100.873 46.8374 106.923C49.5191 112.974 53.765 118.8 53.765 118.8C53.765 118.8 52.2007 84.9631 50.1895 83.8427Z" fill="black"/>
<path d="M54.4341 123.281C54.4341 123.281 53.9872 127.539 53.7637 127.763C53.5402 127.987 53.9872 128.435 53.7637 129.108C53.5402 129.78 53.3167 130.676 53.7637 130.9C54.2106 131.124 51.3055 150.844 51.3055 150.844C51.3055 150.844 44.1544 160.255 47.0595 175.045L47.9534 190.058C47.9534 190.058 54.881 190.506 54.881 188.042C54.881 188.042 54.4341 185.128 54.4341 183.784C54.4341 182.439 55.5515 182.439 54.881 181.767C54.2106 181.095 54.2106 180.647 54.2106 180.647C54.2106 180.647 55.328 179.75 55.1045 179.526C54.881 179.302 57.1158 163.392 57.1158 163.392C57.1158 163.392 59.5739 160.927 59.5739 159.583V158.238C59.5739 158.238 60.6913 155.325 60.6913 155.101C60.6913 154.877 66.725 141.208 66.725 141.208L69.1832 151.068L71.8649 165.185C71.8649 165.185 73.2057 177.958 75.8874 182.888C75.8874 182.888 80.5803 199.022 80.5803 198.573C80.5803 198.125 88.4018 197.005 88.1783 194.988C87.9548 192.971 83.4854 164.737 83.4854 164.737L84.6027 122.833L54.4341 123.281Z" fill="#2F2E41"/>
<path d="M48.4018 188.938C48.4018 188.938 42.3681 200.814 46.3905 201.262C50.413 201.711 51.9773 201.711 53.7651 199.918C54.7425 198.938 56.7217 197.623 58.3153 196.632C59.2595 196.055 60.0223 195.222 60.5161 194.23C61.0099 193.237 61.2149 192.125 61.1074 191.022C60.9895 189.925 60.581 189.022 59.5754 188.938C56.8937 188.714 53.7651 186.249 53.7651 186.249L48.4018 188.938Z" fill="#2F2E41"/>
<path d="M81.6987 197.677C81.6987 197.677 75.6649 209.554 79.6874 210.002C83.7099 210.45 85.2742 210.45 87.062 208.657C88.0394 207.677 90.0186 206.362 91.6122 205.372C92.5564 204.794 93.3191 203.961 93.813 202.969C94.3068 201.977 94.5117 200.865 94.4042 199.761C94.2864 198.665 93.8779 197.761 92.8722 197.677C90.1906 197.453 87.062 194.988 87.062 194.988L81.6987 197.677Z" fill="#2F2E41"/>
<path d="M75.3216 64.4072C80.5097 64.4072 84.7155 60.1899 84.7155 54.9876C84.7155 49.7852 80.5097 45.5679 75.3216 45.5679C70.1335 45.5679 65.9277 49.7852 65.9277 54.9876C65.9277 60.1899 70.1335 64.4072 75.3216 64.4072Z" fill="#FFB8B8"/>
<path d="M69.2829 58.0826C69.2829 58.0826 62.573 70.4627 62.0362 70.4627C61.4994 70.4627 74.1141 74.4997 74.1141 74.4997C74.1141 74.4997 77.6032 62.6578 78.14 61.5813L69.2829 58.0826Z" fill="#FFB8B8"/>
<path d="M79.5755 71.6301C79.5755 71.6301 66.1673 64.2354 64.8264 64.4595C63.4856 64.6835 49.1834 77.2322 49.4069 82.3861C49.6304 87.5401 51.4181 96.0552 51.4181 96.0552C51.4181 96.0552 52.0885 119.808 53.4294 120.032C54.7702 120.256 53.2059 124.29 53.6528 124.29C54.0998 124.29 84.9388 124.29 85.1623 123.618C85.3858 122.945 79.5755 71.6301 79.5755 71.6301Z" fill="#D0CDE1"/>
<path d="M87.0612 124.85C87.0612 124.85 91.3072 137.847 87.7316 137.399C84.1561 136.95 82.5918 126.194 82.5918 126.194L87.0612 124.85Z" fill="#FFB8B8"/>
<path d="M75.6645 70.8458C75.6645 70.8458 67.3961 72.6385 68.7369 83.8427C70.0777 95.0469 72.5359 106.251 72.5359 106.251L80.8044 124.402L81.6983 127.763L87.732 126.194L83.2626 100.201C83.2626 100.201 81.6983 72.4144 79.687 71.5181C78.4187 70.9759 77.0396 70.7454 75.6645 70.8458V70.8458Z" fill="#D0CDE1"/>
<path opacity="0.1" d="M70.6367 105.915L80.9165 124.29L72.2556 104.928L70.6367 105.915Z" fill="black"/>
<path d="M84.6744 52.2139L84.7055 51.4941L86.1335 51.8505C86.1182 51.6194 86.0531 51.3944 85.9426 51.1911C85.8321 50.9877 85.6789 50.8108 85.4936 50.6725L87.0147 50.5873C85.7383 48.7685 84.1076 47.228 82.2209 46.0588C80.3342 44.8896 78.2308 44.116 76.0376 43.7847C72.7474 43.3065 69.0838 43.9985 66.8276 46.447C65.7333 47.6346 65.0456 49.145 64.5565 50.6858C63.6556 53.5236 63.472 56.9065 65.3506 59.2133C67.2598 61.5577 70.5947 62.017 73.5994 62.3071C74.6566 62.4092 75.7645 62.5042 76.7442 62.0929C76.8532 60.9661 76.7094 59.8291 76.3232 58.7653C76.1624 58.436 76.0855 58.0718 76.0995 57.7054C76.233 56.8091 77.4254 56.5833 78.321 56.7044C79.2167 56.8255 80.2937 57.0108 80.8823 56.323C81.2877 55.8492 81.2638 55.1593 81.3175 54.5374C81.4637 52.8442 84.6591 52.5689 84.6744 52.2139Z" fill="#2F2E41"/>
<path d="M142.291 201.004C148.336 201.004 153.237 196.09 153.237 190.028C153.237 183.967 148.336 179.053 142.291 179.053C136.246 179.053 131.346 183.967 131.346 190.028C131.346 196.09 136.246 201.004 142.291 201.004Z" fill="#4564E5"/>
<path d="M13.7462 197.175C19.7912 197.175 24.6917 192.261 24.6917 186.2C24.6917 180.138 19.7912 175.224 13.7462 175.224C7.70123 175.224 2.80078 180.138 2.80078 186.2C2.80078 192.261 7.70123 197.175 13.7462 197.175Z" fill="#4564E5"/>
<path d="M13.7464 179.563C18.1044 179.563 21.6373 176.021 21.6373 171.651C21.6373 167.281 18.1044 163.738 13.7464 163.738C9.38835 163.738 5.85547 167.281 5.85547 171.651C5.85547 176.021 9.38835 179.563 13.7464 179.563Z" fill="#4564E5"/>
<path d="M13.7445 165.014C16.8373 165.014 19.3445 162.5 19.3445 159.399C19.3445 156.298 16.8373 153.784 13.7445 153.784C10.6517 153.784 8.14453 156.298 8.14453 159.399C8.14453 162.5 10.6517 165.014 13.7445 165.014Z" fill="#4564E5"/>
</svg>
